<mxfile host="app.diagrams.net" modified="2024-01-08T12:56:50.385Z" agent="Mozilla/5.0 (Windows NT 10.0; Win64; x64) AppleWebKit/537.36 (KHTML, like Gecko) Chrome/120.0.0.0 Safari/537.36" etag="7G7O2cq0JWAlRum6XyFB" version="22.1.17" type="github">
  <diagram id="C5RBs43oDa-KdzZeNtuy" name="Page-1">
    <mxGraphModel dx="3683" dy="2067" grid="1" gridSize="10" guides="1" tooltips="1" connect="1" arrows="1" fold="1" page="1" pageScale="1" pageWidth="1169" pageHeight="827" math="0" shadow="0">
      <root>
        <mxCell id="WIyWlLk6GJQsqaUBKTNV-0" />
        <mxCell id="WIyWlLk6GJQsqaUBKTNV-1" parent="WIyWlLk6GJQsqaUBKTNV-0" />
        <mxCell id="Lw9UyEE03Acj91Ge5q8R-3" value="" style="edgeStyle=orthogonalEdgeStyle;rounded=0;orthogonalLoop=1;jettySize=auto;html=1;" edge="1" parent="WIyWlLk6GJQsqaUBKTNV-1" source="WIyWlLk6GJQsqaUBKTNV-7">
          <mxGeometry relative="1" as="geometry">
            <mxPoint x="240" y="210" as="targetPoint" />
          </mxGeometry>
        </mxCell>
        <mxCell id="WIyWlLk6GJQsqaUBKTNV-9" value="Yes" style="edgeStyle=orthogonalEdgeStyle;rounded=0;html=1;jettySize=auto;orthogonalLoop=1;fontSize=11;endArrow=block;endFill=0;endSize=8;strokeWidth=1;shadow=0;labelBackgroundColor=none;" parent="WIyWlLk6GJQsqaUBKTNV-1" target="WIyWlLk6GJQsqaUBKTNV-12" edge="1">
          <mxGeometry y="10" relative="1" as="geometry">
            <mxPoint as="offset" />
            <mxPoint x="270" y="330" as="sourcePoint" />
          </mxGeometry>
        </mxCell>
        <mxCell id="Lw9UyEE03Acj91Ge5q8R-5" value="" style="edgeStyle=orthogonalEdgeStyle;rounded=0;orthogonalLoop=1;jettySize=auto;html=1;" edge="1" parent="WIyWlLk6GJQsqaUBKTNV-1" source="WIyWlLk6GJQsqaUBKTNV-10">
          <mxGeometry relative="1" as="geometry">
            <mxPoint x="220" y="450" as="targetPoint" />
          </mxGeometry>
        </mxCell>
        <mxCell id="Lw9UyEE03Acj91Ge5q8R-6" value="" style="image;aspect=fixed;perimeter=ellipsePerimeter;html=1;align=center;shadow=0;dashed=0;spacingTop=3;image=img/lib/active_directory/web_server.svg;" vertex="1" parent="WIyWlLk6GJQsqaUBKTNV-1">
          <mxGeometry x="370" y="-380" width="48" height="60" as="geometry" />
        </mxCell>
        <mxCell id="Lw9UyEE03Acj91Ge5q8R-7" value="client" style="verticalLabelPosition=bottom;sketch=0;aspect=fixed;html=1;verticalAlign=top;strokeColor=none;align=center;outlineConnect=0;shape=mxgraph.citrix.laptop_2;" vertex="1" parent="WIyWlLk6GJQsqaUBKTNV-1">
          <mxGeometry x="120" y="-310" width="106" height="79.04" as="geometry" />
        </mxCell>
        <mxCell id="Lw9UyEE03Acj91Ge5q8R-11" value="" style="endArrow=classic;html=1;rounded=0;" edge="1" parent="WIyWlLk6GJQsqaUBKTNV-1">
          <mxGeometry width="50" height="50" relative="1" as="geometry">
            <mxPoint x="390" y="-380" as="sourcePoint" />
            <mxPoint x="390" y="-450" as="targetPoint" />
          </mxGeometry>
        </mxCell>
        <mxCell id="Lw9UyEE03Acj91Ge5q8R-12" value="" style="endArrow=classic;html=1;rounded=0;" edge="1" parent="WIyWlLk6GJQsqaUBKTNV-1">
          <mxGeometry width="50" height="50" relative="1" as="geometry">
            <mxPoint x="400" y="-370" as="sourcePoint" />
            <mxPoint x="400" y="-440" as="targetPoint" />
          </mxGeometry>
        </mxCell>
        <mxCell id="Lw9UyEE03Acj91Ge5q8R-13" value="" style="endArrow=classic;html=1;rounded=0;" edge="1" parent="WIyWlLk6GJQsqaUBKTNV-1">
          <mxGeometry width="50" height="50" relative="1" as="geometry">
            <mxPoint x="480" y="-470" as="sourcePoint" />
            <mxPoint x="480" y="-540" as="targetPoint" />
          </mxGeometry>
        </mxCell>
        <mxCell id="Lw9UyEE03Acj91Ge5q8R-14" value="" style="endArrow=classic;html=1;rounded=0;" edge="1" parent="WIyWlLk6GJQsqaUBKTNV-1">
          <mxGeometry width="50" height="50" relative="1" as="geometry">
            <mxPoint x="560" y="-370" as="sourcePoint" />
            <mxPoint x="560" y="-440" as="targetPoint" />
          </mxGeometry>
        </mxCell>
        <mxCell id="Lw9UyEE03Acj91Ge5q8R-15" value="&lt;h3 style=&quot;box-sizing: border-box; font-weight: 500; line-height: 1.1; color: rgb(51, 51, 51); margin-top: 0px; margin-bottom: 0px;&quot; class=&quot;panel-title&quot;&gt;&lt;br&gt;&lt;/h3&gt;&lt;div&gt;&lt;br&gt;&lt;/div&gt;&lt;div&gt;&lt;br&gt;&lt;/div&gt;&lt;div&gt;&lt;br&gt;&lt;/div&gt;&lt;div&gt;&lt;br&gt;&lt;/div&gt;&lt;div&gt;&lt;br&gt;&lt;/div&gt;&lt;h3 style=&quot;box-sizing: border-box; font-weight: 500; line-height: 1.1; color: rgb(51, 51, 51); margin-top: 0px; margin-bottom: 0px;&quot; class=&quot;panel-title&quot;&gt;&lt;font style=&quot;font-size: 24px;&quot;&gt;0. Simple web stack&lt;/font&gt;&lt;/h3&gt;&lt;div&gt;&lt;font style=&quot;font-size: 18px;&quot;&gt;&lt;br&gt;&lt;/font&gt;&lt;/div&gt;&lt;div&gt;&lt;font style=&quot;font-size: 18px;&quot;&gt;&lt;u&gt;domain name&lt;/u&gt; - foobar.com&lt;/font&gt;&lt;/div&gt;&lt;div&gt;&lt;font style=&quot;font-size: 18px;&quot;&gt;&lt;u&gt;sub-domain record&lt;/u&gt; - www.foobar.com&lt;/font&gt;&lt;/div&gt;&lt;div&gt;&lt;font style=&quot;font-size: 18px;&quot;&gt;&lt;u&gt;IP address&lt;/u&gt;&amp;nbsp;- (8.8.8.8&lt;font style=&quot;&quot;&gt;)&lt;/font&gt;&lt;/font&gt;&lt;/div&gt;" style="whiteSpace=wrap;html=1;fillColor=#dae8fc;fontSize=14;strokeColor=none;verticalAlign=top;align=center;" vertex="1" parent="WIyWlLk6GJQsqaUBKTNV-1">
          <mxGeometry x="-249" y="-600" width="1750" height="1239" as="geometry" />
        </mxCell>
        <mxCell id="Lw9UyEE03Acj91Ge5q8R-18" style="edgeStyle=none;rounded=0;html=1;startSize=10;endSize=10;jettySize=auto;orthogonalLoop=1;fontSize=14;endArrow=none;endFill=0;strokeWidth=1;exitX=0.644;exitY=0.085;exitDx=0;exitDy=0;exitPerimeter=0;" edge="1" parent="WIyWlLk6GJQsqaUBKTNV-1" source="Lw9UyEE03Acj91Ge5q8R-19">
          <mxGeometry relative="1" as="geometry">
            <mxPoint x="-10" y="240" as="targetPoint" />
          </mxGeometry>
        </mxCell>
        <mxCell id="Lw9UyEE03Acj91Ge5q8R-19" value="Client" style="verticalLabelPosition=bottom;aspect=fixed;html=1;verticalAlign=top;strokeColor=none;shape=mxgraph.citrix.laptop_2;fillColor=#66B2FF;gradientColor=#0066CC;fontSize=14;" vertex="1" parent="WIyWlLk6GJQsqaUBKTNV-1">
          <mxGeometry x="18.999999999999886" y="428.5" width="116" height="86.5" as="geometry" />
        </mxCell>
        <mxCell id="Lw9UyEE03Acj91Ge5q8R-20" style="edgeStyle=none;rounded=0;html=1;startSize=10;endSize=10;jettySize=auto;orthogonalLoop=1;fontSize=14;endArrow=none;endFill=0;strokeWidth=1;exitX=0.693;exitY=0.286;exitDx=0;exitDy=0;exitPerimeter=0;" edge="1" parent="WIyWlLk6GJQsqaUBKTNV-1">
          <mxGeometry relative="1" as="geometry">
            <mxPoint x="-120.32299999999987" y="445.0279999999998" as="sourcePoint" />
            <mxPoint x="-10" y="240" as="targetPoint" />
          </mxGeometry>
        </mxCell>
        <mxCell id="Lw9UyEE03Acj91Ge5q8R-22" value="&lt;span style=&quot;background-color: rgb(255, 255, 255);&quot;&gt;Application server&lt;/span&gt;" style="verticalLabelPosition=bottom;aspect=fixed;html=1;verticalAlign=top;strokeColor=none;shape=mxgraph.citrix.xenapp_server;fillColor=#66B2FF;gradientColor=#0066CC;fontSize=14;" vertex="1" parent="WIyWlLk6GJQsqaUBKTNV-1">
          <mxGeometry x="622.0000000000001" y="-98" width="76" height="89" as="geometry" />
        </mxCell>
        <mxCell id="Lw9UyEE03Acj91Ge5q8R-23" value="&lt;b&gt;Users/Clients (&lt;i&gt;HTTP requests)&lt;/i&gt;&lt;br&gt;&lt;/b&gt;" style="rounded=1;whiteSpace=wrap;html=1;" vertex="1" parent="WIyWlLk6GJQsqaUBKTNV-1">
          <mxGeometry x="-104" y="323" width="190" height="37" as="geometry" />
        </mxCell>
        <mxCell id="Lw9UyEE03Acj91Ge5q8R-24" value="&lt;font style=&quot;font-size: 9px;&quot;&gt;www.foo.com&lt;/font&gt;" style="text;html=1;strokeColor=none;fillColor=none;align=center;verticalAlign=middle;whiteSpace=wrap;rounded=0;rotation=15;" vertex="1" parent="WIyWlLk6GJQsqaUBKTNV-1">
          <mxGeometry x="73" y="469" width="48.37" height="16.55" as="geometry" />
        </mxCell>
        <mxCell id="Lw9UyEE03Acj91Ge5q8R-25" value="" style="image;aspect=fixed;perimeter=ellipsePerimeter;html=1;align=center;shadow=0;dashed=0;spacingTop=3;image=img/lib/active_directory/internet_globe.svg;" vertex="1" parent="WIyWlLk6GJQsqaUBKTNV-1">
          <mxGeometry x="88.5" y="454" width="18" height="18" as="geometry" />
        </mxCell>
        <mxCell id="Lw9UyEE03Acj91Ge5q8R-28" value="" style="endArrow=classic;html=1;rounded=0;exitX=0.727;exitY=0.273;exitDx=0;exitDy=0;exitPerimeter=0;entryX=0;entryY=0.281;entryDx=0;entryDy=0;entryPerimeter=0;strokeWidth=1;" edge="1" parent="WIyWlLk6GJQsqaUBKTNV-1" source="Lw9UyEE03Acj91Ge5q8R-45" target="Lw9UyEE03Acj91Ge5q8R-22">
          <mxGeometry width="50" height="50" relative="1" as="geometry">
            <mxPoint x="113" y="-9" as="sourcePoint" />
            <mxPoint x="163" y="-59" as="targetPoint" />
          </mxGeometry>
        </mxCell>
        <mxCell id="Lw9UyEE03Acj91Ge5q8R-29" value="&lt;font style=&quot;font-size: 12px;&quot;&gt;&amp;nbsp;web server handles the&amp;nbsp;&lt;font style=&quot;&quot; color=&quot;#ff3333&quot;&gt;http requests&lt;/font&gt;&amp;nbsp;&lt;/font&gt;" style="edgeLabel;html=1;align=center;verticalAlign=middle;resizable=0;points=[];" vertex="1" connectable="0" parent="Lw9UyEE03Acj91Ge5q8R-28">
          <mxGeometry x="-0.2159" y="-1" relative="1" as="geometry">
            <mxPoint x="57" as="offset" />
          </mxGeometry>
        </mxCell>
        <mxCell id="Lw9UyEE03Acj91Ge5q8R-30" value="" style="endArrow=classic;html=1;rounded=0;entryX=0.986;entryY=0.455;entryDx=0;entryDy=0;entryPerimeter=0;strokeWidth=1;" edge="1" parent="WIyWlLk6GJQsqaUBKTNV-1" source="Lw9UyEE03Acj91Ge5q8R-22" target="Lw9UyEE03Acj91Ge5q8R-45">
          <mxGeometry width="50" height="50" relative="1" as="geometry">
            <mxPoint x="253" y="-53" as="sourcePoint" />
            <mxPoint x="13" y="-53" as="targetPoint" />
          </mxGeometry>
        </mxCell>
        <mxCell id="Lw9UyEE03Acj91Ge5q8R-31" value="&lt;font style=&quot;font-size: 12px;&quot;&gt;&amp;nbsp;app server&amp;nbsp;&lt;font style=&quot;&quot; color=&quot;#ff3333&quot;&gt;response&amp;nbsp;&lt;/font&gt;to the requests and execute website&#39;s code&amp;nbsp;&lt;/font&gt;" style="edgeLabel;html=1;align=center;verticalAlign=middle;resizable=0;points=[];" vertex="1" connectable="0" parent="Lw9UyEE03Acj91Ge5q8R-30">
          <mxGeometry x="-0.0544" relative="1" as="geometry">
            <mxPoint as="offset" />
          </mxGeometry>
        </mxCell>
        <mxCell id="Lw9UyEE03Acj91Ge5q8R-32" value="" style="edgeStyle=orthogonalEdgeStyle;rounded=0;orthogonalLoop=1;jettySize=auto;html=1;" edge="1" parent="WIyWlLk6GJQsqaUBKTNV-1" target="Lw9UyEE03Acj91Ge5q8R-22">
          <mxGeometry relative="1" as="geometry">
            <mxPoint x="699" y="-187" as="sourcePoint" />
          </mxGeometry>
        </mxCell>
        <mxCell id="Lw9UyEE03Acj91Ge5q8R-33" value="" style="edgeStyle=orthogonalEdgeStyle;rounded=0;orthogonalLoop=1;jettySize=auto;html=1;" edge="1" parent="WIyWlLk6GJQsqaUBKTNV-1" target="Lw9UyEE03Acj91Ge5q8R-35">
          <mxGeometry relative="1" as="geometry">
            <mxPoint x="779" y="-187" as="sourcePoint" />
          </mxGeometry>
        </mxCell>
        <mxCell id="Lw9UyEE03Acj91Ge5q8R-35" value="This refers to the website&#39;s code, which will be hosted on the server and executed by the application server." style="whiteSpace=wrap;html=1;verticalAlign=top;labelBackgroundColor=default;" vertex="1" parent="WIyWlLk6GJQsqaUBKTNV-1">
          <mxGeometry x="821" y="-267.5" width="150" height="82.5" as="geometry" />
        </mxCell>
        <mxCell id="Lw9UyEE03Acj91Ge5q8R-37" value="" style="endArrow=classic;html=1;rounded=0;exitX=0.727;exitY=0.273;exitDx=0;exitDy=0;exitPerimeter=0;entryX=0.138;entryY=0.244;entryDx=0;entryDy=0;entryPerimeter=0;strokeWidth=1;" edge="1" parent="WIyWlLk6GJQsqaUBKTNV-1">
          <mxGeometry width="50" height="50" relative="1" as="geometry">
            <mxPoint x="688" y="-76" as="sourcePoint" />
            <mxPoint x="1297.04" y="-76.98000000000002" as="targetPoint" />
          </mxGeometry>
        </mxCell>
        <mxCell id="Lw9UyEE03Acj91Ge5q8R-38" value="&lt;font style=&quot;font-size: 12px;&quot;&gt;&lt;font style=&quot;&quot; color=&quot;#ff3333&quot;&gt;&amp;nbsp;&lt;/font&gt;application server&amp;nbsp;&lt;font style=&quot;&quot; color=&quot;#ff3333&quot;&gt;interacts&lt;/font&gt; with the database and generates dynamic content&amp;nbsp;&lt;/font&gt;" style="edgeLabel;html=1;align=center;verticalAlign=middle;resizable=0;points=[];" vertex="1" connectable="0" parent="Lw9UyEE03Acj91Ge5q8R-37">
          <mxGeometry x="-0.2159" y="-1" relative="1" as="geometry">
            <mxPoint x="57" y="-2" as="offset" />
          </mxGeometry>
        </mxCell>
        <mxCell id="Lw9UyEE03Acj91Ge5q8R-39" value="" style="endArrow=classic;html=1;rounded=0;exitX=0.138;exitY=0.531;exitDx=0;exitDy=0;exitPerimeter=0;entryX=0;entryY=0.281;entryDx=0;entryDy=0;entryPerimeter=0;strokeWidth=1;" edge="1" parent="WIyWlLk6GJQsqaUBKTNV-1">
          <mxGeometry width="50" height="50" relative="1" as="geometry">
            <mxPoint x="1297.04" y="-54.01999999999998" as="sourcePoint" />
            <mxPoint x="688" y="-54" as="targetPoint" />
          </mxGeometry>
        </mxCell>
        <mxCell id="Lw9UyEE03Acj91Ge5q8R-40" value="&lt;font style=&quot;font-size: 12px;&quot;&gt;It allows the application server to retrieve or modify data when needed&lt;/font&gt;" style="edgeLabel;html=1;align=center;verticalAlign=middle;resizable=0;points=[];" vertex="1" connectable="0" parent="Lw9UyEE03Acj91Ge5q8R-39">
          <mxGeometry x="-0.2159" y="-1" relative="1" as="geometry">
            <mxPoint x="-47" as="offset" />
          </mxGeometry>
        </mxCell>
        <mxCell id="Lw9UyEE03Acj91Ge5q8R-41" style="edgeStyle=orthogonalEdgeStyle;rounded=0;orthogonalLoop=1;jettySize=auto;html=1;exitX=0.5;exitY=1;exitDx=0;exitDy=0;" edge="1" parent="WIyWlLk6GJQsqaUBKTNV-1">
          <mxGeometry relative="1" as="geometry">
            <mxPoint x="739" y="-147" as="sourcePoint" />
            <mxPoint x="739" y="-147" as="targetPoint" />
          </mxGeometry>
        </mxCell>
        <mxCell id="Lw9UyEE03Acj91Ge5q8R-42" style="edgeStyle=orthogonalEdgeStyle;rounded=0;orthogonalLoop=1;jettySize=auto;html=1;exitX=0.561;exitY=0.014;exitDx=0;exitDy=0;entryX=0.5;entryY=1;entryDx=0;entryDy=0;exitPerimeter=0;" edge="1" parent="WIyWlLk6GJQsqaUBKTNV-1">
          <mxGeometry relative="1" as="geometry">
            <mxPoint x="-2.119999999999436" y="167.1199999999999" as="sourcePoint" />
            <mxPoint x="-2" y="7" as="targetPoint" />
            <Array as="points" />
          </mxGeometry>
        </mxCell>
        <mxCell id="Lw9UyEE03Acj91Ge5q8R-44" style="edgeStyle=orthogonalEdgeStyle;rounded=0;orthogonalLoop=1;jettySize=auto;html=1;exitX=0.5;exitY=0;exitDx=0;exitDy=0;entryX=0.4;entryY=-0.008;entryDx=0;entryDy=0;entryPerimeter=0;" edge="1" parent="WIyWlLk6GJQsqaUBKTNV-1">
          <mxGeometry relative="1" as="geometry">
            <mxPoint x="-16" y="7" as="sourcePoint" />
            <mxPoint x="-16" y="164.3599999999999" as="targetPoint" />
            <Array as="points" />
          </mxGeometry>
        </mxCell>
        <mxCell id="Lw9UyEE03Acj91Ge5q8R-45" value="&lt;font style=&quot;font-size: 14px;&quot;&gt;Nginx&lt;br&gt;(web server)&lt;/font&gt;" style="image;aspect=fixed;perimeter=ellipsePerimeter;html=1;align=center;shadow=0;dashed=0;spacingTop=3;image=img/lib/active_directory/web_server.svg;" vertex="1" parent="WIyWlLk6GJQsqaUBKTNV-1">
          <mxGeometry x="-51" y="-103" width="88" height="110" as="geometry" />
        </mxCell>
        <mxCell id="Lw9UyEE03Acj91Ge5q8R-47" value="Client&lt;br&gt;" style="image;aspect=fixed;html=1;points=[];align=center;fontSize=12;image=img/lib/azure2/management_governance/Managed_Desktop.svg;" vertex="1" parent="WIyWlLk6GJQsqaUBKTNV-1">
          <mxGeometry x="-180" y="445.68" width="86" height="79.93" as="geometry" />
        </mxCell>
        <mxCell id="Lw9UyEE03Acj91Ge5q8R-48" value="Server&lt;br&gt;" style="image;aspect=fixed;perimeter=ellipsePerimeter;html=1;align=center;shadow=0;dashed=0;spacingTop=3;image=img/lib/active_directory/generic_server.svg;" vertex="1" parent="WIyWlLk6GJQsqaUBKTNV-1">
          <mxGeometry x="-30.599999999999998" y="160" width="43.2" height="77.14" as="geometry" />
        </mxCell>
        <mxCell id="Lw9UyEE03Acj91Ge5q8R-50" style="edgeStyle=orthogonalEdgeStyle;rounded=0;orthogonalLoop=1;jettySize=auto;html=1;exitX=1;exitY=0.75;exitDx=0;exitDy=0;entryX=0.25;entryY=1;entryDx=0;entryDy=0;" edge="1" parent="WIyWlLk6GJQsqaUBKTNV-1" source="Lw9UyEE03Acj91Ge5q8R-48" target="Lw9UyEE03Acj91Ge5q8R-48">
          <mxGeometry relative="1" as="geometry" />
        </mxCell>
        <mxCell id="Lw9UyEE03Acj91Ge5q8R-52" value="Application file" style="image;aspect=fixed;html=1;points=[];align=center;fontSize=12;image=img/lib/azure2/general/Files.svg;" vertex="1" parent="WIyWlLk6GJQsqaUBKTNV-1">
          <mxGeometry x="702" y="-240.94" width="74" height="80.94" as="geometry" />
        </mxCell>
        <mxCell id="Lw9UyEE03Acj91Ge5q8R-53" value="MySQL&lt;br&gt;(Database)" style="verticalLabelPosition=bottom;html=1;verticalAlign=top;align=center;strokeColor=none;fillColor=#00BEF2;shape=mxgraph.azure.sql_database_sql_azure;" vertex="1" parent="WIyWlLk6GJQsqaUBKTNV-1">
          <mxGeometry x="1300" y="-109" width="112" height="100" as="geometry" />
        </mxCell>
      </root>
    </mxGraphModel>
  </diagram>
</mxfile>
